<svg width="77" height="41" viewBox="0 0 77 41" fill="none" xmlns="http://www.w3.org/2000/svg">
<path d="M75.9904 8.90383C75.6313 6.11057 74.4341 4.19519 73.0176 2.87837C72.1596 1.98053 71.2618 1.44183 70.5036 1.16251C68.5284 0.184864 66.7926 0.0252497 66.7926 0.0252497C63.8597 -0.29398 63.2212 2.51923 63.2212 2.51923C62.5229 4.39471 63.5803 10.1807 63.5803 10.1807H63.6003C63.6601 11.0187 63.7599 11.9964 63.9195 13.0937C63.9195 13.0937 66.4933 28.4766 59.171 28.5365C59.171 28.5365 53.784 30.2723 51.2301 16.1065C50.2525 13.7721 49.5342 15.6875 49.5342 15.6875C49.3547 16.7649 47.4792 21.4735 47.4792 21.4735C43.7282 31.629 39.5782 29.3744 39.5782 29.3744C37.4833 28.5165 37.7227 22.1918 37.7227 22.1918C37.8823 16.7848 37.3636 13.5526 37.3636 13.5526C35.5879 1.38198 27.6869 0.943035 27.6869 0.943035C18.7286 0.105057 13.4014 11.9964 12.5435 14.0514C12.5235 13.9117 12.5235 13.8319 12.5235 13.8319C11.7654 3.35721 6.33845 4.37475 6.33845 4.37475C-0.505042 4.3149 0.392793 11.5973 0.392793 11.5973L0.931492 26.3019C1.45024 36.9362 7.05671 39.8891 7.05671 39.8891C13.7805 43.0614 13.6209 35.2203 13.6209 35.2203C13.6608 34.7415 13.6608 34.0631 13.6608 33.2251L13.6807 33.3249C13.6807 33.2451 13.6608 33.1653 13.6608 33.0855C13.6408 32.3672 13.6209 31.5691 13.581 30.6713C13.6009 28.6761 13.7805 27.0002 13.9401 25.9826C15.9951 13.5726 20.1252 10.9788 20.1252 10.9788C27.2679 6.23028 26.2704 20.8949 26.2704 20.8949C26.2704 24.586 26.3302 27.6586 26.3302 27.6586C27.4874 42.3032 36.6054 40.5076 36.6054 40.5076C43.0698 40.5076 46.721 34.4422 48.7561 28.3768C49.3946 31.8285 51.9883 40.727 61.9443 40.5674C61.9443 40.5674 73.7757 41.6648 76.3096 18.0617C76.7087 14.2709 76.5091 11.2781 75.9904 8.90383Z" fill="white"/>
</svg>
